<svg width="21" height="21" viewBox="0 0 21 21" fill="none" xmlns="http://www.w3.org/2000/svg">
<path d="M21.0001 0C18.8763 0.146016 3.95557 1.5668 2.91253 11.7966C2.78579 12.89 2.71402 13.9884 2.66685 15.0877L10.0033 7.75855C10.2597 7.5022 10.676 7.5022 10.9324 7.75855C11.1887 8.0149 11.1887 8.43039 10.9324 8.68674L0.288751 19.3197C-0.0959771 19.704 -0.0959771 20.3274 0.288751 20.7118C0.67348 21.0961 1.29733 21.0961 1.68247 20.7118L4.0257 18.371C5.75206 18.3652 7.47718 18.2672 9.19206 18.0691C11.3856 17.846 13.1714 16.9834 14.6299 15.7501H10.4894L16.5101 13.7452C16.9715 13.1345 17.3866 12.4856 17.759 11.8126H14.431L18.8008 9.63011C20.5198 5.44936 20.9259 1.07708 21.0001 0Z" fill="#626033"/>
</svg>
