<svg width="24" height="21" viewBox="0 0 24 21" fill="none" xmlns="http://www.w3.org/2000/svg">
<path fill-rule="evenodd" clip-rule="evenodd" d="M10.8466 0.0553C11.2319 0.151822 11.563 0.397425 11.7672 0.738084C11.9714 1.07874 12.0318 1.48655 11.9353 1.87181L11.2764 4.50298H15.6792L16.5178 1.14401C16.5644 0.952032 16.6486 0.771183 16.7654 0.611877C16.8823 0.452571 17.0295 0.317958 17.1986 0.215793C17.3677 0.113627 17.5553 0.0459288 17.7507 0.0165972C17.946 -0.0127343 18.1453 -0.00311894 18.3369 0.0448891C18.5286 0.0928971 18.7088 0.178349 18.8673 0.296322C19.0257 0.414295 19.1593 0.562458 19.2602 0.732274C19.3612 0.90209 19.4276 1.0902 19.4555 1.28578C19.4834 1.48135 19.4724 1.68052 19.423 1.87181L18.7641 4.50298H22.463C22.8602 4.50298 23.2411 4.66075 23.5219 4.94159C23.8028 5.22244 23.9605 5.60334 23.9605 6.00051C23.9605 6.39768 23.8028 6.77858 23.5219 7.05943C23.2411 7.34027 22.8602 7.49804 22.463 7.49804H18.0153L16.5178 13.4882H19.4679C19.8651 13.4882 20.246 13.646 20.5269 13.9268C20.8077 14.2076 20.9655 14.5885 20.9655 14.9857C20.9655 15.3829 20.8077 15.7638 20.5269 16.0446C20.246 16.3255 19.8651 16.4832 19.4679 16.4832H15.769L14.9304 19.8407C14.8855 20.0344 14.8025 20.2172 14.6862 20.3785C14.5699 20.5397 14.4226 20.6762 14.253 20.7799C14.0834 20.8837 13.8949 20.9526 13.6983 20.9827C13.5018 21.0128 13.3013 21.0035 13.1084 20.9553C12.9155 20.9071 12.7341 20.8209 12.5749 20.7019C12.4157 20.5828 12.2817 20.4333 12.1809 20.2619C12.0801 20.0906 12.0144 19.9008 11.9876 19.7038C11.9609 19.5068 11.9737 19.3064 12.0252 19.1144L12.6841 16.4832H8.28136L7.44274 19.8407C7.39784 20.0344 7.31481 20.2172 7.19851 20.3785C7.08221 20.5397 6.93497 20.6762 6.76536 20.7799C6.59576 20.8837 6.40719 20.9526 6.21067 20.9827C6.01414 21.0128 5.81359 21.0035 5.62071 20.9553C5.42782 20.9071 5.24647 20.8209 5.08723 20.7019C4.928 20.5828 4.79406 20.4333 4.69323 20.2619C4.5924 20.0906 4.52671 19.9008 4.49998 19.7038C4.47324 19.5068 4.48601 19.3064 4.53753 19.1144L5.19644 16.4832H1.49753C1.10036 16.4832 0.71946 16.3255 0.438617 16.0446C0.157775 15.7638 0 15.3829 0 14.9857C0 14.5885 0.157775 14.2076 0.438617 13.9268C0.71946 13.646 1.10036 13.4882 1.49753 13.4882H5.94521L7.44274 7.49804H4.4926C4.09543 7.49804 3.71453 7.34027 3.43369 7.05943C3.15284 6.77858 2.99507 6.39768 2.99507 6.00051C2.99507 5.60334 3.15284 5.22244 3.43369 4.94159C3.71453 4.66075 4.09543 4.50298 4.4926 4.50298H8.19151L9.03013 1.14401C9.12665 0.758757 9.37225 0.427626 9.71291 0.223456C10.0536 0.0192852 10.4614 -0.0412019 10.8466 0.0553V0.0553ZM10.5277 7.49804L9.03013 13.4882H13.4299L14.9274 7.49804H10.5292H10.5277Z" fill="#626033"/>
</svg>
