<svg width="16" height="19" viewBox="0 0 16 19" fill="none" xmlns="http://www.w3.org/2000/svg">
<path d="M13.3 3.8H11.4C11.4 1.7005 9.6995 0 7.6 0C5.5005 0 3.8 1.7005 3.8 3.8H1.9C0.855 3.8 0 4.655 0 5.7V17.1C0 18.145 0.855 19 1.9 19H13.3C14.345 19 15.2 18.145 15.2 17.1V5.7C15.2 4.655 14.345 3.8 13.3 3.8ZM7.6 1.9C8.645 1.9 9.5 2.755 9.5 3.8H5.7C5.7 2.755 6.555 1.9 7.6 1.9ZM13.3 17.1H1.9V5.7H3.8V7.6C3.8 8.1225 4.2275 8.55 4.75 8.55C5.2725 8.55 5.7 8.1225 5.7 7.6V5.7H9.5V7.6C9.5 8.1225 9.9275 8.55 10.45 8.55C10.9725 8.55 11.4 8.1225 11.4 7.6V5.7H13.3V17.1Z" fill="white"/>
</svg>
