<svg width="28" height="21" viewBox="0 0 28 21" fill="none" xmlns="http://www.w3.org/2000/svg">
<path d="M24.7059 0.617647C23.3347 0.185294 21.8276 0 20.3824 0C17.9735 0 15.3794 0.494118 13.5882 1.85294C11.7971 0.494118 9.20294 0 6.79412 0C4.38529 0 1.79118 0.494118 0 1.85294V19.95C0 20.2588 0.308824 20.5676 0.617647 20.5676C0.741176 20.5676 0.802941 20.5059 0.926471 20.5059C2.59412 19.7029 5.00294 19.1471 6.79412 19.1471C9.20294 19.1471 11.7971 19.6412 13.5882 21C15.2559 19.95 18.2824 19.1471 20.3824 19.1471C22.4206 19.1471 24.5206 19.5176 26.25 20.4441C26.3735 20.5059 26.4353 20.5059 26.5588 20.5059C26.8676 20.5059 27.1765 20.1971 27.1765 19.8882V1.85294C26.4353 1.29706 25.6324 0.926471 24.7059 0.617647ZM24.7059 17.2941C23.3471 16.8618 21.8647 16.6765 20.3824 16.6765C18.2824 16.6765 15.2559 17.4794 13.5882 18.5294V4.32353C15.2559 3.27353 18.2824 2.47059 20.3824 2.47059C21.8647 2.47059 23.3471 2.65588 24.7059 3.08824V17.2941Z" fill="#626033"/>
</svg>
