<svg width="208" height="60" viewBox="0 0 208 60" fill="none" xmlns="http://www.w3.org/2000/svg">
<path d="M200 1.20187C203.562 1.20187 206.46 4.0275 206.46 7.5V52.5C206.46 55.9725 203.562 58.7981 200 58.7981H7.69231C4.13077 58.7981 1.23269 55.9725 1.23269 52.5V7.5C1.23269 4.0275 4.13077 1.20187 7.69231 1.20187H200ZM200 0H7.69231C3.46346 0 0 3.37687 0 7.5V52.5C0 56.6231 3.46346 60 7.69231 60H200C204.229 60 207.692 56.6231 207.692 52.5V7.5C207.692 3.37687 204.229 0 200 0Z" fill="#A6A6A6"/>
<path d="M14.9 11.3082C14.4481 11.7694 14.1865 12.4875 14.1865 13.4175V46.59C14.1865 47.52 14.4481 48.2382 14.9 48.6994L15.0115 48.8007L34.0769 30.2194V29.7807L15.0115 11.1994L14.9 11.3082Z" fill="#410001"/>
<path d="M42.7326 36.4163L36.3845 30.2194V29.7806L42.7403 23.5838L42.8826 23.6644L50.4095 27.84C52.5576 29.025 52.5576 30.975 50.4095 32.1675L42.8826 36.3356L42.7326 36.4163Z" fill="#410001"/>
<path d="M41.7288 37.4895L35.2308 31.1539L16.0538 49.8533C16.7673 50.5845 17.9308 50.6726 19.2538 49.9414L41.7288 37.4895Z" fill="#410001"/>
<path d="M41.7288 22.5106L19.2538 10.0587C17.9308 9.33494 16.7673 9.42307 16.0538 10.1543L35.2308 28.8462L41.7288 22.5106Z" fill="#410001"/>
<path d="M72.95 15.3656C72.95 16.6181 72.5654 17.6212 71.8077 18.3694C70.9366 19.2562 69.802 19.7025 68.4116 19.7025C67.0827 19.7025 65.9481 19.2487 65.0173 18.3544C64.0846 17.4469 63.6193 16.3331 63.6193 15C63.6193 13.6669 64.0846 12.5531 65.0173 11.6531C65.9481 10.7512 67.0827 10.2975 68.4116 10.2975C69.0731 10.2975 69.7039 10.4306 70.3058 10.6781C70.9058 10.9275 71.3943 11.265 71.7481 11.6812L70.9443 12.4725C70.327 11.7619 69.4866 11.4112 68.4116 11.4112C67.4423 11.4112 66.602 11.7412 65.8885 12.4069C65.1827 13.0744 64.8289 13.9387 64.8289 15C64.8289 16.0612 65.1827 16.9331 65.8885 17.6006C66.602 18.2587 67.4423 18.5962 68.4116 18.5962C69.4404 18.5962 70.3058 18.2587 70.9885 17.5931C71.4385 17.1525 71.6943 16.545 71.7616 15.7687H68.4116V14.685H72.8808C72.9346 14.9194 72.95 15.1462 72.95 15.3656Z" fill="#410001" stroke="#410001" stroke-width="0.16" stroke-miterlimit="10"/>
<path d="M80.0405 11.6082H75.8424V14.4582H79.627V15.5419H75.8424V18.3919H80.0405V19.4963H74.6539V10.5038H80.0405V11.6082Z" fill="#410001" stroke="#410001" stroke-width="0.16" stroke-miterlimit="10"/>
<path d="M85.0442 19.4963H83.8558V11.6082H81.2808V10.5038H87.6211V11.6082H85.0442V19.4963Z" fill="#410001" stroke="#410001" stroke-width="0.16" stroke-miterlimit="10"/>
<path d="M92.2097 19.4963V10.5038H93.3963V19.4963H92.2097Z" fill="#410001" stroke="#410001" stroke-width="0.16" stroke-miterlimit="10"/>
<path d="M98.6558 19.4963H97.4769V11.6082H94.8923V10.5038H101.24V11.6082H98.6558V19.4963Z" fill="#410001" stroke="#410001" stroke-width="0.16" stroke-miterlimit="10"/>
<path d="M113.244 18.3394C112.335 19.2487 111.208 19.7025 109.863 19.7025C108.512 19.7025 107.385 19.2487 106.475 18.3394C105.567 17.4319 105.115 16.3181 105.115 15C105.115 13.6819 105.567 12.5681 106.475 11.6606C107.385 10.7512 108.512 10.2975 109.863 10.2975C111.2 10.2975 112.327 10.7512 113.237 11.6681C114.152 12.5831 114.604 13.6894 114.604 15C114.604 16.3181 114.152 17.4319 113.244 18.3394ZM107.354 17.5856C108.038 18.2587 108.871 18.5962 109.863 18.5962C110.848 18.5962 111.688 18.2587 112.365 17.5856C113.048 16.9125 113.394 16.0481 113.394 15C113.394 13.9519 113.048 13.0875 112.365 12.4144C111.688 11.7412 110.848 11.4037 109.863 11.4037C108.871 11.4037 108.038 11.7412 107.354 12.4144C106.671 13.0875 106.325 13.9519 106.325 15C106.325 16.0481 106.671 16.9125 107.354 17.5856Z" fill="#410001" stroke="#410001" stroke-width="0.16" stroke-miterlimit="10"/>
<path d="M116.271 19.4963V10.5038H117.713L122.198 17.4975H122.25L122.198 15.7688V10.5038H123.385V19.4963H122.146L117.45 12.1575H117.398L117.45 13.8938V19.4963H116.271Z" fill="#410001" stroke="#410001" stroke-width="0.16" stroke-miterlimit="10"/>
<path d="M104.823 32.6287C101.21 32.6287 98.2576 35.31 98.2576 39.0093C98.2576 42.6787 101.21 45.3881 104.823 45.3881C108.444 45.3881 111.396 42.6787 111.396 39.0093C111.396 35.31 108.444 32.6287 104.823 32.6287ZM104.823 42.8756C102.84 42.8756 101.135 41.28 101.135 39.0093C101.135 36.7087 102.84 35.1412 104.823 35.1412C106.806 35.1412 108.519 36.7087 108.519 39.0093C108.519 41.28 106.806 42.8756 104.823 42.8756ZM90.498 32.6287C86.8769 32.6287 83.9327 35.31 83.9327 39.0093C83.9327 42.6787 86.8769 45.3881 90.498 45.3881C94.1173 45.3881 97.0634 42.6787 97.0634 39.0093C97.0634 35.31 94.1173 32.6287 90.498 32.6287ZM90.498 42.8756C88.5134 42.8756 86.8019 41.28 86.8019 39.0093C86.8019 36.7087 88.5134 35.1412 90.498 35.1412C92.4807 35.1412 94.1865 36.7087 94.1865 39.0093C94.1865 41.28 92.4807 42.8756 90.498 42.8756ZM73.4519 34.5843V37.2956H80.0923C79.898 38.8106 79.3788 39.9243 78.5826 40.7006C77.6134 41.6381 76.1038 42.6787 73.4519 42.6787C69.3653 42.6787 66.1653 39.4631 66.1653 35.4787C66.1653 31.4943 69.3653 28.2787 73.4519 28.2787C75.6615 28.2787 77.2692 29.1206 78.4557 30.2118L80.4153 28.3012C78.7557 26.7562 76.548 25.5693 73.4519 25.5693C67.848 25.5693 63.1384 30.015 63.1384 35.4787C63.1384 40.9425 67.848 45.3881 73.4519 45.3881C76.4807 45.3881 78.7557 44.4206 80.5442 42.6056C82.3769 40.8187 82.948 38.3062 82.948 36.2775C82.948 35.6475 82.8942 35.0681 82.798 34.5843H73.4519ZM143.156 36.6862C142.615 35.2593 140.948 32.6287 137.552 32.6287C134.186 32.6287 131.385 35.2143 131.385 39.0093C131.385 42.5831 134.158 45.3881 137.875 45.3881C140.881 45.3881 142.615 43.6012 143.329 42.5606L141.098 41.1112C140.354 42.1725 139.34 42.8756 137.875 42.8756C136.419 42.8756 135.375 42.225 134.706 40.9425L143.458 37.4118L143.156 36.6862ZM134.233 38.8106C134.158 36.3506 136.192 35.0906 137.65 35.0906C138.792 35.0906 139.761 35.6475 140.085 36.4443L134.233 38.8106ZM127.119 45H129.996V26.25H127.119V45ZM122.408 34.05H122.311C121.665 33.3037 120.433 32.6287 118.871 32.6287C115.594 32.6287 112.598 35.4337 112.598 39.03C112.598 42.6056 115.594 45.3881 118.871 45.3881C120.433 45.3881 121.665 44.7075 122.311 43.9387H122.408V44.8537C122.408 47.2931 121.071 48.6037 118.915 48.6037C117.158 48.6037 116.067 47.3662 115.617 46.3256L113.115 47.3437C113.836 49.035 115.746 51.1162 118.915 51.1162C122.288 51.1162 125.135 49.1812 125.135 44.4731V33.0168H122.408V34.05ZM119.117 42.8756C117.135 42.8756 115.475 41.2575 115.475 39.03C115.475 36.7818 117.135 35.1412 119.117 35.1412C121.071 35.1412 122.611 36.7818 122.611 39.03C122.611 41.2575 121.071 42.8756 119.117 42.8756ZM156.625 26.25H149.744V45H152.613V37.8956H156.625C159.811 37.8956 162.936 35.6475 162.936 32.0718C162.936 28.4981 159.804 26.25 156.625 26.25ZM156.7 35.2875H152.613V28.8581H156.7C158.842 28.8581 160.065 30.5925 160.065 32.0718C160.065 33.5231 158.842 35.2875 156.7 35.2875ZM174.436 32.5931C172.363 32.5931 170.208 33.4856 169.321 35.4637L171.867 36.5043C172.415 35.4637 173.423 35.1262 174.488 35.1262C175.977 35.1262 177.486 35.9981 177.51 37.5375V37.7343C176.99 37.4418 175.879 37.0087 174.511 37.0087C171.769 37.0087 168.975 38.4806 168.975 41.2275C168.975 43.74 171.221 45.3581 173.746 45.3581C175.677 45.3581 176.742 44.5087 177.411 43.5206H177.51V44.97H180.281V37.7775C180.281 34.4531 177.735 32.5931 174.436 32.5931ZM174.09 42.8681C173.152 42.8681 171.844 42.4143 171.844 41.28C171.844 39.8287 173.475 39.2718 174.886 39.2718C176.15 39.2718 176.742 39.5437 177.51 39.9018C177.285 41.6381 175.752 42.8681 174.09 42.8681ZM190.377 33.0037L187.079 41.1318H186.981L183.571 33.0037H180.477L185.6 44.3625L182.677 50.6831H185.675L193.569 33.0037H190.377ZM164.513 45H167.39V26.25H164.513V45Z" fill="#410001"/>
</svg>
