<svg width="208" height="60" viewBox="0 0 208 60" fill="none" xmlns="http://www.w3.org/2000/svg">
<path d="M200 1.20188C203.562 1.20188 206.46 4.0275 206.46 7.5V52.5C206.46 55.9725 203.562 58.7981 200 58.7981H7.69231C4.13077 58.7981 1.23269 55.9725 1.23269 52.5V7.5C1.23269 4.0275 4.13077 1.20188 7.69231 1.20188H200ZM200 3.8147e-06H7.69231C3.46346 3.8147e-06 0 3.37688 0 7.5V52.5C0 56.6231 3.46346 60 7.69231 60H200C204.229 60 207.692 56.6231 207.692 52.5V7.5C207.692 3.37688 204.229 3.8147e-06 200 3.8147e-06Z" fill="#A6A6A6"/>
<path d="M46.3508 29.6759C46.3062 24.8414 50.4108 22.4894 50.5985 22.3799C48.2739 19.0754 44.6708 18.6239 43.4047 18.5879C40.3785 18.2774 37.4432 20.3534 35.9016 20.3534C34.3293 20.3534 31.9555 18.6179 29.397 18.6689C26.1047 18.7184 23.0247 20.5769 21.3355 23.4629C17.8493 29.3474 20.4493 37.9949 23.7893 42.7514C25.4601 45.0809 27.4124 47.6819 29.9678 47.5904C32.4678 47.4899 33.4016 46.0364 36.4185 46.0364C39.4078 46.0364 40.2847 47.5904 42.8908 47.5319C45.5739 47.4899 47.2632 45.1919 48.8755 42.8414C50.8062 40.1714 51.5816 37.5419 51.6124 37.4069C51.5493 37.3859 46.4016 35.4704 46.3508 29.6759Z" fill="#410001"/>
<path d="M41.4278 15.4589C42.7724 13.8194 43.6924 11.5889 43.437 9.32544C41.4908 9.40944 39.057 10.6379 37.6555 12.2414C36.4155 13.6544 35.3078 15.9704 35.5939 18.1484C37.7801 18.3074 40.0247 17.0729 41.4278 15.4589Z" fill="#410001"/>
<path d="M75.4615 15.0135C75.4615 16.779 74.9185 18.108 73.8339 19.0005C72.8292 19.824 71.4015 20.2365 69.5523 20.2365C68.6354 20.2365 67.8508 20.1975 67.1938 20.1195V10.473C68.0508 10.338 68.9738 10.269 69.9708 10.269C71.7323 10.269 73.06 10.6425 73.9554 11.3895C74.9585 12.234 75.4615 13.4415 75.4615 15.0135ZM73.7615 15.057C73.7615 13.9125 73.4508 13.035 72.8292 12.423C72.2077 11.8125 71.3 11.5065 70.1046 11.5065C69.5969 11.5065 69.1646 11.5395 68.8062 11.6085V18.942C69.0046 18.972 69.3677 18.9855 69.8954 18.9855C71.1292 18.9855 72.0815 18.651 72.7523 17.982C73.4231 17.313 73.7615 16.338 73.7615 15.057Z" fill="#410001"/>
<path d="M84.4754 16.5554C84.4754 17.6429 84.1569 18.5339 83.52 19.2329C82.8523 19.9514 81.9677 20.3099 80.8631 20.3099C79.7985 20.3099 78.9508 19.9664 78.3185 19.2764C77.6877 18.5879 77.3723 17.7194 77.3723 16.6724C77.3723 15.5774 77.6969 14.6789 78.3492 13.9814C79.0015 13.2839 79.8785 12.9344 80.9831 12.9344C82.0477 12.9344 82.9031 13.2779 83.5508 13.9664C84.1662 14.6354 84.4754 15.4994 84.4754 16.5554ZM82.8031 16.6064C82.8031 15.9539 82.6585 15.3944 82.3708 14.9279C82.0323 14.3639 81.5508 14.0819 80.9246 14.0819C80.2769 14.0819 79.7846 14.3639 79.4462 14.9279C79.1569 15.3944 79.0139 15.9629 79.0139 16.6349C79.0139 17.2874 79.1585 17.8469 79.4462 18.3134C79.7954 18.8774 80.2815 19.1594 80.9092 19.1594C81.5246 19.1594 82.0077 18.8729 82.3554 18.2984C82.6539 17.8229 82.8031 17.2589 82.8031 16.6064Z" fill="#410001"/>
<path d="M96.5616 13.0785L94.2924 20.1495H92.8155L91.8755 17.079C91.637 16.3125 91.4432 15.5505 91.2924 14.7945H91.2632C91.1232 15.5715 90.9293 16.332 90.6801 17.079L89.6816 20.1495H88.1878L86.054 13.0785H87.7109L88.5309 16.44C88.7293 17.235 88.8924 17.9925 89.0232 18.7095H89.0524C89.1724 18.1185 89.3709 17.3655 89.6509 16.455L90.6801 13.08H91.994L92.9801 16.383C93.2186 17.1885 93.4124 17.964 93.5616 18.711H93.6063C93.7155 17.9835 93.8801 17.208 94.0986 16.383L94.9786 13.08H96.5616V13.0785Z" fill="#410001"/>
<path d="M104.92 20.1496H103.308V16.0996C103.308 14.8516 102.821 14.2276 101.846 14.2276C101.368 14.2276 100.981 14.3986 100.681 14.7421C100.385 15.0856 100.234 15.4906 100.234 15.9541V20.1481H98.6214V15.0991C98.6214 14.4781 98.6014 13.8046 98.563 13.0756H99.9799L100.055 14.1811H100.1C100.288 13.8376 100.568 13.5541 100.935 13.3276C101.372 13.0636 101.861 12.9301 102.397 12.9301C103.074 12.9301 103.637 13.1431 104.085 13.5706C104.641 14.0941 104.92 14.8756 104.92 15.9136V20.1496Z" fill="#410001"/>
<path d="M109.366 20.1495H107.755V9.83398H109.366V20.1495Z" fill="#410001"/>
<path d="M118.858 16.5554C118.858 17.6429 118.54 18.5339 117.903 19.2329C117.235 19.9514 116.349 20.3099 115.246 20.3099C114.18 20.3099 113.332 19.9664 112.702 19.2764C112.071 18.5879 111.755 17.7194 111.755 16.6724C111.755 15.5774 112.08 14.6789 112.732 13.9814C113.385 13.2839 114.262 12.9344 115.365 12.9344C116.431 12.9344 117.285 13.2779 117.934 13.9664C118.549 14.6354 118.858 15.4994 118.858 16.5554ZM117.185 16.6064C117.185 15.9539 117.04 15.3944 116.752 14.9279C116.415 14.3639 115.932 14.0819 115.308 14.0819C114.658 14.0819 114.166 14.3639 113.829 14.9279C113.54 15.3944 113.397 15.9629 113.397 16.6349C113.397 17.2874 113.542 17.8469 113.829 18.3134C114.178 18.8774 114.665 19.1594 115.292 19.1594C115.908 19.1594 116.389 18.8729 116.737 18.2984C117.037 17.8229 117.185 17.2589 117.185 16.6064Z" fill="#410001"/>
<path d="M126.662 20.1494H125.214L125.094 19.3349H125.049C124.554 19.9844 123.848 20.3099 122.931 20.3099C122.246 20.3099 121.692 20.0954 121.275 19.6694C120.897 19.2824 120.708 18.8009 120.708 18.2294C120.708 17.3654 121.077 16.7069 121.82 16.2509C122.562 15.7949 123.605 15.5714 124.948 15.5819V15.4499C124.948 14.5184 124.446 14.0534 123.442 14.0534C122.726 14.0534 122.095 14.2289 121.551 14.5769L121.223 13.5449C121.897 13.1384 122.729 12.9344 123.711 12.9344C125.606 12.9344 126.557 13.9094 126.557 15.8594V18.4634C126.557 19.1699 126.592 19.7324 126.662 20.1494ZM124.988 17.7194V16.6289C123.209 16.5989 122.32 17.0744 122.32 18.0539C122.32 18.4229 122.422 18.6989 122.629 18.8834C122.837 19.0679 123.102 19.1594 123.417 19.1594C123.771 19.1594 124.102 19.0499 124.403 18.8324C124.706 18.6134 124.892 18.3359 124.962 17.9954C124.979 17.9189 124.988 17.8259 124.988 17.7194Z" fill="#410001"/>
<path d="M135.823 20.1495H134.392L134.317 19.014H134.272C133.815 19.878 133.037 20.31 131.943 20.31C131.069 20.31 130.341 19.9755 129.765 19.3065C129.188 18.6375 128.9 17.769 128.9 16.7025C128.9 15.558 129.212 14.631 129.84 13.923C130.448 13.263 131.192 12.933 132.078 12.933C133.052 12.933 133.734 13.2525 134.121 13.893H134.152V9.83398H135.766V18.2445C135.766 18.933 135.785 19.5675 135.823 20.1495ZM134.152 17.1675V15.9885C134.152 15.7845 134.137 15.6195 134.108 15.4935C134.017 15.1155 133.821 14.7975 133.525 14.541C133.225 14.2845 132.863 14.1555 132.446 14.1555C131.845 14.1555 131.374 14.388 131.028 14.8545C130.685 15.321 130.511 15.9165 130.511 16.644C130.511 17.343 130.675 17.91 131.006 18.3465C131.355 18.8115 131.826 19.044 132.415 19.044C132.945 19.044 133.368 18.8505 133.689 18.462C134 18.1035 134.152 17.6715 134.152 17.1675Z" fill="#410001"/>
<path d="M149.612 16.5554C149.612 17.6429 149.294 18.5339 148.657 19.2329C147.989 19.9514 147.106 20.3099 146 20.3099C144.937 20.3099 144.089 19.9664 143.455 19.2764C142.825 18.5879 142.509 17.7194 142.509 16.6724C142.509 15.5774 142.834 14.6789 143.486 13.9814C144.139 13.2839 145.015 12.9344 146.122 12.9344C147.185 12.9344 148.042 13.2779 148.688 13.9664C149.303 14.6354 149.612 15.4994 149.612 16.5554ZM147.942 16.6064C147.942 15.9539 147.797 15.3944 147.509 14.9279C147.169 14.3639 146.689 14.0819 146.062 14.0819C145.415 14.0819 144.923 14.3639 144.583 14.9279C144.294 15.3944 144.151 15.9629 144.151 16.6349C144.151 17.2874 144.295 17.8469 144.583 18.3134C144.932 18.8774 145.419 19.1594 146.046 19.1594C146.662 19.1594 147.146 18.8729 147.494 18.2984C147.791 17.8229 147.942 17.2589 147.942 16.6064Z" fill="#410001"/>
<path d="M158.282 20.1496H156.671V16.0996C156.671 14.8516 156.185 14.2276 155.208 14.2276C154.729 14.2276 154.343 14.3986 154.045 14.7421C153.746 15.0856 153.597 15.4906 153.597 15.9541V20.1481H151.983V15.0991C151.983 14.4781 151.965 13.8046 151.926 13.0756H153.342L153.417 14.1811H153.462C153.651 13.8376 153.931 13.5541 154.297 13.3276C154.735 13.0636 155.223 12.9301 155.76 12.9301C156.435 12.9301 156.999 13.1431 157.446 13.5706C158.005 14.0941 158.282 14.8756 158.282 15.9136V20.1496Z" fill="#410001"/>
<path d="M169.132 14.256H167.357V17.691C167.357 18.564 167.672 19.0005 168.297 19.0005C168.586 19.0005 168.826 18.9765 169.015 18.927L169.057 20.1195C168.738 20.2365 168.32 20.295 167.805 20.295C167.168 20.295 166.672 20.106 166.314 19.728C165.954 19.35 165.775 18.714 165.775 17.8215V14.256H164.715V13.0785H165.775V11.7825L167.355 11.3175V13.077H169.131V14.256H169.132Z" fill="#410001"/>
<path d="M177.668 20.1495H176.054V16.1295C176.054 14.862 175.568 14.2275 174.594 14.2275C173.846 14.2275 173.335 14.595 173.055 15.33C173.008 15.4845 172.98 15.6735 172.98 15.8955V20.148H171.369V9.83398H172.98V14.0955H173.011C173.518 13.32 174.246 12.933 175.189 12.933C175.857 12.933 176.409 13.146 176.848 13.5735C177.394 14.106 177.668 14.898 177.668 15.945V20.1495Z" fill="#410001"/>
<path d="M186.472 16.2795C186.472 16.5615 186.451 16.7985 186.412 16.992H181.577C181.599 17.691 181.829 18.2235 182.277 18.5925C182.686 18.9225 183.214 19.0875 183.86 19.0875C184.575 19.0875 185.228 18.9765 185.815 18.753L186.068 19.845C185.38 20.136 184.571 20.2815 183.634 20.2815C182.511 20.2815 181.626 19.959 180.986 19.314C180.343 18.669 180.025 17.8035 180.025 16.7175C180.025 15.651 180.322 14.763 180.92 14.055C181.545 13.299 182.389 12.921 183.455 12.921C184.499 12.921 185.291 13.299 185.826 14.055C186.259 14.655 186.472 15.3975 186.472 16.2795ZM184.934 15.873C184.946 15.4065 184.84 15.0045 184.622 14.6655C184.342 14.229 183.915 14.01 183.339 14.01C182.812 14.01 182.383 14.223 182.055 14.6505C181.788 14.991 181.629 15.3975 181.577 15.873H184.934Z" fill="#410001"/>
<path d="M82.5307 47.2559H79.0369L77.123 41.3924H70.4707L68.6476 47.2559H65.2461L71.8369 27.2939H75.9076L82.5307 47.2559ZM76.5461 38.9324L74.8153 33.7199C74.6322 33.1874 74.2892 31.9334 73.783 29.9594H73.7215C73.5199 30.8084 73.1953 32.0624 72.7492 33.7199L71.0492 38.9324H76.5461Z" fill="#410001"/>
<path d="M99.4799 39.882C99.4799 42.33 98.8014 44.265 97.4445 45.6855C96.2291 46.95 94.7199 47.5815 92.9183 47.5815C90.9737 47.5815 89.5768 46.9005 88.726 45.5385H88.6645V53.121H85.3845V37.6005C85.3845 36.0615 85.3429 34.482 85.2629 32.862H88.1476L88.3306 35.1435H88.3922C89.486 33.4245 91.146 32.5665 93.3737 32.5665C95.1152 32.5665 96.5691 33.237 97.7322 34.5795C98.8983 35.9235 99.4799 37.6905 99.4799 39.882ZM96.1383 39.999C96.1383 38.598 95.8152 37.443 95.166 36.534C94.4568 35.586 93.5045 35.112 92.3106 35.112C91.5014 35.112 90.766 35.376 90.1091 35.8965C89.4506 36.4215 89.0199 37.107 88.8183 37.956C88.7168 38.352 88.666 38.676 88.666 38.931V41.331C88.666 42.378 88.9952 43.2615 89.6537 43.983C90.3122 44.7045 91.1676 45.0645 92.2199 45.0645C93.4552 45.0645 94.4168 44.5995 95.1045 43.6725C95.7937 42.744 96.1383 41.52 96.1383 39.999Z" fill="#410001"/>
<path d="M116.46 39.882C116.46 42.33 115.782 44.265 114.423 45.6855C113.209 46.95 111.7 47.5815 109.898 47.5815C107.954 47.5815 106.557 46.9005 105.708 45.5385H105.646V53.121H102.366V37.6005C102.366 36.0615 102.325 34.482 102.245 32.862H105.129L105.312 35.1435H105.374C106.466 33.4245 108.126 32.5665 110.355 32.5665C112.095 32.5665 113.549 33.237 114.715 34.5795C115.877 35.9235 116.46 37.6905 116.46 39.882ZM113.118 39.999C113.118 38.598 112.794 37.443 112.145 36.534C111.435 35.586 110.486 35.112 109.291 35.112C108.48 35.112 107.746 35.376 107.088 35.8965C106.429 36.4215 106 37.107 105.798 37.956C105.698 38.352 105.646 38.676 105.646 38.931V41.331C105.646 42.378 105.975 43.2615 106.631 43.983C107.289 44.703 108.145 45.0645 109.2 45.0645C110.435 45.0645 111.397 44.5995 112.085 43.6725C112.774 42.744 113.118 41.52 113.118 39.999Z" fill="#410001"/>
<path d="M135.444 41.658C135.444 43.356 134.84 44.7375 133.626 45.804C132.292 46.9695 130.435 47.5515 128.049 47.5515C125.846 47.5515 124.08 47.1375 122.743 46.308L123.503 43.6425C124.943 44.4915 126.523 44.9175 128.244 44.9175C129.48 44.9175 130.441 44.6445 131.132 44.1015C131.82 43.5585 132.163 42.8295 132.163 41.9205C132.163 41.1105 131.88 40.428 131.312 39.8745C130.748 39.321 129.804 38.8065 128.488 38.331C124.903 37.0275 123.112 35.118 123.112 32.607C123.112 30.966 123.74 29.6205 124.997 28.5735C126.249 27.525 127.92 27.0015 130.009 27.0015C131.872 27.0015 133.42 27.318 134.655 27.9495L133.835 30.5565C132.681 29.9445 131.377 29.6385 129.917 29.6385C128.763 29.6385 127.861 29.916 127.215 30.468C126.669 30.9615 126.395 31.563 126.395 32.2755C126.395 33.0645 126.708 33.717 127.335 34.23C127.881 34.704 128.874 35.217 130.314 35.7705C132.075 36.462 133.369 37.2705 134.201 38.1975C135.031 39.1215 135.444 40.278 135.444 41.658Z" fill="#410001"/>
<path d="M146.289 35.2619H142.674V42.2504C142.674 44.0279 143.311 44.9159 144.588 44.9159C145.174 44.9159 145.66 44.8664 146.044 44.7674L146.135 47.1959C145.489 47.4314 144.638 47.5499 143.584 47.5499C142.289 47.5499 141.277 47.1644 140.546 46.3949C139.818 45.6239 139.452 44.3309 139.452 42.5144V35.2589H137.298V32.8589H139.452V30.2234L142.674 29.2754V32.8589H146.289V35.2619Z" fill="#410001"/>
<path d="M162.601 39.9405C162.601 42.153 161.952 43.9695 160.657 45.39C159.298 46.8525 157.495 47.5815 155.248 47.5815C153.081 47.5815 151.357 46.881 150.071 45.48C148.784 44.079 148.141 42.3105 148.141 40.179C148.141 37.9485 148.803 36.1215 150.131 34.701C151.455 33.279 153.243 32.568 155.491 32.568C157.657 32.568 159.4 33.2685 160.715 34.671C161.974 36.0315 162.601 37.788 162.601 39.9405ZM159.198 40.044C159.198 38.7165 158.908 37.578 158.318 36.6285C157.631 35.4795 156.648 34.9065 155.374 34.9065C154.055 34.9065 153.054 35.481 152.366 36.6285C151.777 37.5795 151.486 38.736 151.486 40.104C151.486 41.4315 151.777 42.57 152.366 43.518C153.075 44.667 154.066 45.24 155.344 45.24C156.597 45.24 157.58 44.655 158.289 43.488C158.894 42.5205 159.198 41.37 159.198 40.044Z" fill="#410001"/>
<path d="M173.263 35.6745C172.938 35.616 172.592 35.586 172.229 35.586C171.075 35.586 170.183 36.0105 169.555 36.861C169.009 37.611 168.735 38.559 168.735 39.7035V47.256H165.457L165.488 37.395C165.488 35.736 165.446 34.2255 165.365 32.8635H168.221L168.341 35.6175H168.432C168.778 34.671 169.325 33.909 170.072 33.3375C170.803 32.823 171.592 32.5665 172.443 32.5665C172.746 32.5665 173.02 32.5875 173.263 32.625V35.6745Z" fill="#410001"/>
<path d="M187.932 39.3779C187.932 39.9509 187.894 40.4339 187.812 40.8284H177.972C178.011 42.2504 178.486 43.3379 179.4 44.0879C180.229 44.7584 181.301 45.0944 182.618 45.0944C184.075 45.0944 185.405 44.8679 186.6 44.4134L187.114 46.6334C185.717 47.2274 184.068 47.5229 182.165 47.5229C179.875 47.5229 178.078 46.8659 176.771 45.5534C175.466 44.2409 174.812 42.4784 174.812 40.2674C174.812 38.0969 175.42 36.2894 176.637 34.8479C177.911 33.3089 179.632 32.5394 181.798 32.5394C183.926 32.5394 185.537 33.3089 186.631 34.8479C187.497 36.0704 187.932 37.5824 187.932 39.3779ZM184.805 38.5484C184.826 37.6004 184.612 36.7814 184.168 36.0899C183.6 35.2004 182.728 34.7564 181.554 34.7564C180.481 34.7564 179.609 35.1899 178.943 36.0599C178.397 36.7514 178.072 37.5809 177.972 38.5469H184.805V38.5484Z" fill="#410001"/>
</svg>
